<?xml version="1.0" standalone="no"?>
<!DOCTYPE svg PUBLIC "-//W3C//DTD SVG 20010904//EN"
 "http://www.w3.org/TR/2001/REC-SVG-20010904/DTD/svg10.dtd">
<svg version="1.0" xmlns="http://www.w3.org/2000/svg"
 width="140.000000pt" height="140.000000pt" viewBox="0 0 140.000000 140.000000"
 preserveAspectRatio="xMidYMid meet">
<metadata>
Created by potrace 1.14, written by Peter Selinger 2001-2017
</metadata>
<g transform="translate(0.000000,140.000000) scale(0.100000,-0.100000)"
fill="#000000" stroke="none">
<path d="M800 1070 c0 -6 107 -11 288 -12 l287 -3 3 -172 c1 -104 6 -173 12
-173 6 0 10 71 10 185 l0 185 -300 0 c-190 0 -300 -4 -300 -10z"/>
<path d="M391 893 c-30 -6 -90 -43 -114 -71 -43 -47 -59 -154 -36 -237 15 -53
73 -110 129 -125 74 -20 179 -8 241 27 l54 30 0 94 0 94 -107 3 -108 3 0 -51
0 -50 45 0 c33 0 45 -4 45 -15 0 -20 -32 -35 -77 -35 -64 1 -93 37 -93 118 0
41 5 55 29 81 37 40 81 42 110 5 19 -24 22 -25 77 -15 32 6 61 14 65 19 14 14
-22 77 -56 100 -36 23 -150 37 -204 25z"/>
<path d="M875 891 c-52 -13 -93 -40 -122 -78 -24 -31 -28 -47 -32 -116 -4
-100 10 -147 57 -191 68 -65 212 -75 294 -21 60 40 92 116 86 205 -7 90 -37
145 -100 177 -50 26 -134 37 -183 24z m113 -125 c30 -29 36 -129 11 -178 -5
-9 -25 -20 -44 -24 -48 -9 -81 15 -95 66 -28 105 62 200 128 136z"/>
<path d="M0 502 l0 -192 302 0 c198 0 299 3 292 10 -6 6 -123 11 -289 12
l-280 3 -3 170 c-1 93 -7 174 -12 179 -7 7 -10 -57 -10 -182z"/>
</g>
</svg>
